<mxfile host="app.diagrams.net" agent="Mozilla/5.0 (Windows NT 10.0; Win64; x64) AppleWebKit/537.36 (KHTML, like Gecko) Chrome/131.0.0.0 Safari/537.36 Edg/131.0.0.0" version="25.0.3" pages="2">
  <diagram name="flight finder run" id="l0UuXqwrxmNvvq2hG0_o">
    <mxGraphModel dx="2652" dy="1118" grid="1" gridSize="10" guides="1" tooltips="1" connect="1" arrows="1" fold="1" page="1" pageScale="1" pageWidth="827" pageHeight="1169" math="0" shadow="0">
      <root>
        <mxCell id="0" />
        <mxCell id="1" parent="0" />
        <mxCell id="_K0xD_TnkWG8aA0ycnSw-1" value="Flight finder started" style="points=[[0.145,0.145,0],[0.5,0,0],[0.855,0.145,0],[1,0.5,0],[0.855,0.855,0],[0.5,1,0],[0.145,0.855,0],[0,0.5,0]];shape=mxgraph.bpmn.event;html=1;verticalLabelPosition=bottom;labelBackgroundColor=#ffffff;verticalAlign=top;align=center;perimeter=ellipsePerimeter;outlineConnect=0;aspect=fixed;outline=standard;symbol=general;" parent="1" vertex="1">
          <mxGeometry x="-110" y="270" width="50" height="50" as="geometry" />
        </mxCell>
        <mxCell id="_K0xD_TnkWG8aA0ycnSw-8" value="" style="edgeStyle=orthogonalEdgeStyle;rounded=0;orthogonalLoop=1;jettySize=auto;html=1;" parent="1" source="_K0xD_TnkWG8aA0ycnSw-5" target="_K0xD_TnkWG8aA0ycnSw-7" edge="1">
          <mxGeometry relative="1" as="geometry" />
        </mxCell>
        <mxCell id="_K0xD_TnkWG8aA0ycnSw-5" value="Go to Wizzair AYF website" style="points=[[0.25,0,0],[0.5,0,0],[0.75,0,0],[1,0.25,0],[1,0.5,0],[1,0.75,0],[0.75,1,0],[0.5,1,0],[0.25,1,0],[0,0.75,0],[0,0.5,0],[0,0.25,0]];shape=mxgraph.bpmn.task;whiteSpace=wrap;rectStyle=rounded;size=10;html=1;container=1;expand=0;collapsible=0;taskMarker=abstract;" parent="1" vertex="1">
          <mxGeometry x="-10" y="255" width="120" height="80" as="geometry" />
        </mxCell>
        <mxCell id="_K0xD_TnkWG8aA0ycnSw-6" style="edgeStyle=orthogonalEdgeStyle;rounded=0;orthogonalLoop=1;jettySize=auto;html=1;entryX=0;entryY=0.5;entryDx=0;entryDy=0;entryPerimeter=0;" parent="1" source="_K0xD_TnkWG8aA0ycnSw-1" target="_K0xD_TnkWG8aA0ycnSw-5" edge="1">
          <mxGeometry relative="1" as="geometry" />
        </mxCell>
        <mxCell id="MbSm_xnD5Ezz3WY8M0dj-2" value="" style="edgeStyle=orthogonalEdgeStyle;rounded=0;orthogonalLoop=1;jettySize=auto;html=1;" edge="1" parent="1" source="_K0xD_TnkWG8aA0ycnSw-7" target="MbSm_xnD5Ezz3WY8M0dj-1">
          <mxGeometry relative="1" as="geometry" />
        </mxCell>
        <mxCell id="_K0xD_TnkWG8aA0ycnSw-7" value="Fill in login info" style="points=[[0.25,0,0],[0.5,0,0],[0.75,0,0],[1,0.25,0],[1,0.5,0],[1,0.75,0],[0.75,1,0],[0.5,1,0],[0.25,1,0],[0,0.75,0],[0,0.5,0],[0,0.25,0]];shape=mxgraph.bpmn.task;whiteSpace=wrap;rectStyle=rounded;size=10;html=1;container=1;expand=0;collapsible=0;taskMarker=abstract;" parent="1" vertex="1">
          <mxGeometry x="190" y="255" width="120" height="80" as="geometry" />
        </mxCell>
        <mxCell id="_K0xD_TnkWG8aA0ycnSw-11" value="List of near airports&lt;div&gt;&lt;br&gt;&lt;/div&gt;" style="shape=mxgraph.bpmn.data;labelPosition=center;verticalLabelPosition=bottom;align=center;verticalAlign=top;size=15;html=1;bpmnTransferType=input;" parent="1" vertex="1">
          <mxGeometry x="370" y="128" width="40" height="60" as="geometry" />
        </mxCell>
        <mxCell id="_K0xD_TnkWG8aA0ycnSw-16" value="" style="edgeStyle=orthogonalEdgeStyle;rounded=0;orthogonalLoop=1;jettySize=auto;html=1;" parent="1" source="_K0xD_TnkWG8aA0ycnSw-13" target="_K0xD_TnkWG8aA0ycnSw-15" edge="1">
          <mxGeometry relative="1" as="geometry" />
        </mxCell>
        <mxCell id="_K0xD_TnkWG8aA0ycnSw-13" value="Save suitable flights as json to disk" style="points=[[0.25,0,0],[0.5,0,0],[0.75,0,0],[1,0.25,0],[1,0.5,0],[1,0.75,0],[0.75,1,0],[0.5,1,0],[0.25,1,0],[0,0.75,0],[0,0.5,0],[0,0.25,0]];shape=mxgraph.bpmn.task;whiteSpace=wrap;rectStyle=rounded;size=10;html=1;container=1;expand=0;collapsible=0;taskMarker=abstract;" parent="1" vertex="1">
          <mxGeometry x="990" y="255" width="120" height="80" as="geometry" />
        </mxCell>
        <mxCell id="_K0xD_TnkWG8aA0ycnSw-18" value="" style="edgeStyle=orthogonalEdgeStyle;rounded=0;orthogonalLoop=1;jettySize=auto;html=1;" parent="1" source="_K0xD_TnkWG8aA0ycnSw-15" target="_K0xD_TnkWG8aA0ycnSw-17" edge="1">
          <mxGeometry relative="1" as="geometry" />
        </mxCell>
        <mxCell id="_K0xD_TnkWG8aA0ycnSw-15" value="Create a flight report (PDF, Markdown or similar)" style="points=[[0.25,0,0],[0.5,0,0],[0.75,0,0],[1,0.25,0],[1,0.5,0],[1,0.75,0],[0.75,1,0],[0.5,1,0],[0.25,1,0],[0,0.75,0],[0,0.5,0],[0,0.25,0]];shape=mxgraph.bpmn.task;whiteSpace=wrap;rectStyle=rounded;size=10;html=1;container=1;expand=0;collapsible=0;taskMarker=abstract;" parent="1" vertex="1">
          <mxGeometry x="1190" y="255" width="120" height="80" as="geometry" />
        </mxCell>
        <mxCell id="_K0xD_TnkWG8aA0ycnSw-17" value="Send report email to Kmar &amp;amp; Moh" style="points=[[0.25,0,0],[0.5,0,0],[0.75,0,0],[1,0.25,0],[1,0.5,0],[1,0.75,0],[0.75,1,0],[0.5,1,0],[0.25,1,0],[0,0.75,0],[0,0.5,0],[0,0.25,0]];shape=mxgraph.bpmn.task;whiteSpace=wrap;rectStyle=rounded;size=10;html=1;container=1;expand=0;collapsible=0;taskMarker=abstract;" parent="1" vertex="1">
          <mxGeometry x="1383" y="255" width="120" height="80" as="geometry" />
        </mxCell>
        <mxCell id="_K0xD_TnkWG8aA0ycnSw-22" value="End flight finder" style="points=[[0.145,0.145,0],[0.5,0,0],[0.855,0.145,0],[1,0.5,0],[0.855,0.855,0],[0.5,1,0],[0.145,0.855,0],[0,0.5,0]];shape=mxgraph.bpmn.event;html=1;verticalLabelPosition=bottom;labelBackgroundColor=#ffffff;verticalAlign=top;align=center;perimeter=ellipsePerimeter;outlineConnect=0;aspect=fixed;outline=end;symbol=terminate;" parent="1" vertex="1">
          <mxGeometry x="1560" y="270" width="50" height="50" as="geometry" />
        </mxCell>
        <mxCell id="_K0xD_TnkWG8aA0ycnSw-23" style="edgeStyle=orthogonalEdgeStyle;rounded=0;orthogonalLoop=1;jettySize=auto;html=1;entryX=0;entryY=0.5;entryDx=0;entryDy=0;entryPerimeter=0;" parent="1" source="_K0xD_TnkWG8aA0ycnSw-17" target="_K0xD_TnkWG8aA0ycnSw-22" edge="1">
          <mxGeometry relative="1" as="geometry" />
        </mxCell>
        <mxCell id="_K0xD_TnkWG8aA0ycnSw-24" value="Find suitable flights" style="points=[[0.25,0,0],[0.5,0,0],[0.75,0,0],[1,0.25,0],[1,0.5,0],[1,0.75,0],[0.75,1,0],[0.5,1,0],[0.25,1,0],[0,0.75,0],[0,0.5,0],[0,0.25,0]];shape=mxgraph.bpmn.task;whiteSpace=wrap;rectStyle=rounded;size=10;html=1;container=1;expand=0;collapsible=0;taskMarker=abstract;isLoopSub=1;" parent="1" vertex="1">
          <mxGeometry x="590" y="255" width="120" height="80" as="geometry" />
        </mxCell>
        <mxCell id="j3OsHrQRc_9RvrzfsCGa-2" value="Flight report" style="shape=mxgraph.bpmn.data;labelPosition=center;verticalLabelPosition=bottom;align=center;verticalAlign=top;size=15;html=1;bpmnTransferType=output;isCollection=1;" parent="1" vertex="1">
          <mxGeometry x="680" y="128" width="40" height="60" as="geometry" />
        </mxCell>
        <mxCell id="j3OsHrQRc_9RvrzfsCGa-3" style="rounded=0;orthogonalLoop=1;jettySize=auto;html=1;entryX=0.5;entryY=0;entryDx=0;entryDy=0;entryPerimeter=0;dashed=1;edgeStyle=orthogonalEdgeStyle;" parent="1" source="j3OsHrQRc_9RvrzfsCGa-2" target="_K0xD_TnkWG8aA0ycnSw-24" edge="1">
          <mxGeometry relative="1" as="geometry" />
        </mxCell>
        <mxCell id="MbSm_xnD5Ezz3WY8M0dj-1" value="Scrape flight data" style="points=[[0.25,0,0],[0.5,0,0],[0.75,0,0],[1,0.25,0],[1,0.5,0],[1,0.75,0],[0.75,1,0],[0.5,1,0],[0.25,1,0],[0,0.75,0],[0,0.5,0],[0,0.25,0]];shape=mxgraph.bpmn.task;whiteSpace=wrap;rectStyle=rounded;size=10;html=1;container=1;expand=0;collapsible=0;taskMarker=abstract;" vertex="1" parent="1">
          <mxGeometry x="390" y="255" width="120" height="80" as="geometry" />
        </mxCell>
        <mxCell id="MbSm_xnD5Ezz3WY8M0dj-3" style="edgeStyle=orthogonalEdgeStyle;rounded=0;orthogonalLoop=1;jettySize=auto;html=1;entryX=0;entryY=0.5;entryDx=0;entryDy=0;entryPerimeter=0;" edge="1" parent="1" source="MbSm_xnD5Ezz3WY8M0dj-1" target="_K0xD_TnkWG8aA0ycnSw-24">
          <mxGeometry relative="1" as="geometry" />
        </mxCell>
        <mxCell id="MbSm_xnD5Ezz3WY8M0dj-4" style="edgeStyle=orthogonalEdgeStyle;rounded=0;orthogonalLoop=1;jettySize=auto;html=1;entryX=0.5;entryY=0;entryDx=0;entryDy=0;entryPerimeter=0;dashed=1;" edge="1" parent="1" source="_K0xD_TnkWG8aA0ycnSw-11" target="MbSm_xnD5Ezz3WY8M0dj-1">
          <mxGeometry relative="1" as="geometry" />
        </mxCell>
        <mxCell id="MbSm_xnD5Ezz3WY8M0dj-7" style="edgeStyle=orthogonalEdgeStyle;rounded=0;orthogonalLoop=1;jettySize=auto;html=1;exitX=0.5;exitY=1;exitDx=0;exitDy=0;exitPerimeter=0;dashed=1;" edge="1" parent="1" source="MbSm_xnD5Ezz3WY8M0dj-6">
          <mxGeometry relative="1" as="geometry">
            <mxPoint x="450" y="250" as="targetPoint" />
            <Array as="points">
              <mxPoint x="510" y="220" />
              <mxPoint x="451" y="220" />
            </Array>
          </mxGeometry>
        </mxCell>
        <mxCell id="MbSm_xnD5Ezz3WY8M0dj-6" value="Flights from&amp;nbsp;&lt;div&gt;and to&amp;nbsp;&lt;/div&gt;&lt;div&gt;near airports&lt;/div&gt;" style="shape=mxgraph.bpmn.data;labelPosition=center;verticalLabelPosition=bottom;align=center;verticalAlign=top;size=15;html=1;bpmnTransferType=output;" vertex="1" parent="1">
          <mxGeometry x="490" y="128" width="40" height="60" as="geometry" />
        </mxCell>
        <mxCell id="MbSm_xnD5Ezz3WY8M0dj-8" value="&lt;div&gt;Flights from&amp;nbsp;&lt;div&gt;and to&amp;nbsp;&lt;/div&gt;&lt;div&gt;near airports&lt;/div&gt;&lt;/div&gt;" style="shape=mxgraph.bpmn.data;labelPosition=center;verticalLabelPosition=bottom;align=center;verticalAlign=top;size=15;html=1;bpmnTransferType=input;" vertex="1" parent="1">
          <mxGeometry x="570" y="128" width="40" height="60" as="geometry" />
        </mxCell>
        <mxCell id="MbSm_xnD5Ezz3WY8M0dj-9" style="edgeStyle=orthogonalEdgeStyle;rounded=0;orthogonalLoop=1;jettySize=auto;html=1;entryX=0.5;entryY=0;entryDx=0;entryDy=0;entryPerimeter=0;dashed=1;" edge="1" parent="1" source="MbSm_xnD5Ezz3WY8M0dj-8" target="_K0xD_TnkWG8aA0ycnSw-24">
          <mxGeometry relative="1" as="geometry" />
        </mxCell>
        <mxCell id="MbSm_xnD5Ezz3WY8M0dj-11" value="Check for flight availability" style="points=[[0.25,0,0],[0.5,0,0],[0.75,0,0],[1,0.25,0],[1,0.5,0],[1,0.75,0],[0.75,1,0],[0.5,1,0],[0.25,1,0],[0,0.75,0],[0,0.5,0],[0,0.25,0]];shape=mxgraph.bpmn.task;whiteSpace=wrap;rectStyle=rounded;size=10;html=1;container=1;expand=0;collapsible=0;taskMarker=abstract;" vertex="1" parent="1">
          <mxGeometry x="790" y="255" width="120" height="80" as="geometry" />
        </mxCell>
        <mxCell id="MbSm_xnD5Ezz3WY8M0dj-12" style="edgeStyle=orthogonalEdgeStyle;rounded=0;orthogonalLoop=1;jettySize=auto;html=1;entryX=0;entryY=0.5;entryDx=0;entryDy=0;entryPerimeter=0;" edge="1" parent="1" source="_K0xD_TnkWG8aA0ycnSw-24" target="MbSm_xnD5Ezz3WY8M0dj-11">
          <mxGeometry relative="1" as="geometry" />
        </mxCell>
        <mxCell id="MbSm_xnD5Ezz3WY8M0dj-13" style="edgeStyle=orthogonalEdgeStyle;rounded=0;orthogonalLoop=1;jettySize=auto;html=1;entryX=0;entryY=0.5;entryDx=0;entryDy=0;entryPerimeter=0;" edge="1" parent="1" source="MbSm_xnD5Ezz3WY8M0dj-11" target="_K0xD_TnkWG8aA0ycnSw-13">
          <mxGeometry relative="1" as="geometry" />
        </mxCell>
        <mxCell id="MbSm_xnD5Ezz3WY8M0dj-17" value="" style="group" vertex="1" connectable="0" parent="1">
          <mxGeometry x="30" y="357" width="440" height="60" as="geometry" />
        </mxCell>
        <mxCell id="MbSm_xnD5Ezz3WY8M0dj-15" value="" style="shape=curlyBracket;whiteSpace=wrap;html=1;rounded=1;flipH=1;labelPosition=right;verticalLabelPosition=middle;align=left;verticalAlign=middle;rotation=90;size=0.5;" vertex="1" parent="MbSm_xnD5Ezz3WY8M0dj-17">
          <mxGeometry x="210" y="-210" width="20" height="440" as="geometry" />
        </mxCell>
        <mxCell id="MbSm_xnD5Ezz3WY8M0dj-16" value="ScraperService" style="text;html=1;align=center;verticalAlign=middle;resizable=0;points=[];autosize=1;strokeColor=none;fillColor=none;" vertex="1" parent="MbSm_xnD5Ezz3WY8M0dj-17">
          <mxGeometry x="165" y="23" width="110" height="30" as="geometry" />
        </mxCell>
        <mxCell id="MbSm_xnD5Ezz3WY8M0dj-24" value="" style="group" vertex="1" connectable="0" parent="1">
          <mxGeometry x="588" y="360" width="130" height="50" as="geometry" />
        </mxCell>
        <mxCell id="MbSm_xnD5Ezz3WY8M0dj-22" value="" style="shape=curlyBracket;whiteSpace=wrap;html=1;rounded=1;flipH=1;labelPosition=right;verticalLabelPosition=middle;align=left;verticalAlign=middle;rotation=90;size=0.5;" vertex="1" parent="MbSm_xnD5Ezz3WY8M0dj-24">
          <mxGeometry x="50" y="-45" width="20" height="110" as="geometry" />
        </mxCell>
        <mxCell id="MbSm_xnD5Ezz3WY8M0dj-23" value="FlightFinderService" style="text;html=1;align=center;verticalAlign=middle;resizable=0;points=[];autosize=1;strokeColor=none;fillColor=none;" vertex="1" parent="MbSm_xnD5Ezz3WY8M0dj-24">
          <mxGeometry y="20" width="130" height="30" as="geometry" />
        </mxCell>
        <mxCell id="MbSm_xnD5Ezz3WY8M0dj-25" value="" style="group" vertex="1" connectable="0" parent="1">
          <mxGeometry x="790" y="360" width="130" height="50" as="geometry" />
        </mxCell>
        <mxCell id="MbSm_xnD5Ezz3WY8M0dj-26" value="" style="shape=curlyBracket;whiteSpace=wrap;html=1;rounded=1;flipH=1;labelPosition=right;verticalLabelPosition=middle;align=left;verticalAlign=middle;rotation=90;size=0.5;" vertex="1" parent="MbSm_xnD5Ezz3WY8M0dj-25">
          <mxGeometry x="50" y="-45" width="20" height="110" as="geometry" />
        </mxCell>
        <mxCell id="MbSm_xnD5Ezz3WY8M0dj-27" value="ScraperService" style="text;html=1;align=center;verticalAlign=middle;resizable=0;points=[];autosize=1;strokeColor=none;fillColor=none;" vertex="1" parent="MbSm_xnD5Ezz3WY8M0dj-25">
          <mxGeometry x="7" y="19" width="110" height="30" as="geometry" />
        </mxCell>
        <mxCell id="MbSm_xnD5Ezz3WY8M0dj-28" value="" style="group" vertex="1" connectable="0" parent="1">
          <mxGeometry x="980" y="360" width="130" height="50" as="geometry" />
        </mxCell>
        <mxCell id="MbSm_xnD5Ezz3WY8M0dj-29" value="" style="shape=curlyBracket;whiteSpace=wrap;html=1;rounded=1;flipH=1;labelPosition=right;verticalLabelPosition=middle;align=left;verticalAlign=middle;rotation=90;size=0.5;" vertex="1" parent="MbSm_xnD5Ezz3WY8M0dj-28">
          <mxGeometry x="50" y="-45" width="20" height="110" as="geometry" />
        </mxCell>
        <mxCell id="MbSm_xnD5Ezz3WY8M0dj-30" value="DataManager" style="text;html=1;align=center;verticalAlign=middle;resizable=0;points=[];autosize=1;strokeColor=none;fillColor=none;" vertex="1" parent="MbSm_xnD5Ezz3WY8M0dj-28">
          <mxGeometry x="12" y="19" width="100" height="30" as="geometry" />
        </mxCell>
        <mxCell id="MbSm_xnD5Ezz3WY8M0dj-31" value="" style="group" vertex="1" connectable="0" parent="1">
          <mxGeometry x="1190" y="360" width="130" height="50" as="geometry" />
        </mxCell>
        <mxCell id="MbSm_xnD5Ezz3WY8M0dj-32" value="" style="shape=curlyBracket;whiteSpace=wrap;html=1;rounded=1;flipH=1;labelPosition=right;verticalLabelPosition=middle;align=left;verticalAlign=middle;rotation=90;size=0.5;" vertex="1" parent="MbSm_xnD5Ezz3WY8M0dj-31">
          <mxGeometry x="50" y="-45" width="20" height="110" as="geometry" />
        </mxCell>
        <mxCell id="MbSm_xnD5Ezz3WY8M0dj-33" value="ReportService" style="text;html=1;align=center;verticalAlign=middle;resizable=0;points=[];autosize=1;strokeColor=none;fillColor=none;" vertex="1" parent="MbSm_xnD5Ezz3WY8M0dj-31">
          <mxGeometry x="12" y="19" width="100" height="30" as="geometry" />
        </mxCell>
        <mxCell id="MbSm_xnD5Ezz3WY8M0dj-34" value="" style="group" vertex="1" connectable="0" parent="1">
          <mxGeometry x="1386" y="360" width="130" height="50" as="geometry" />
        </mxCell>
        <mxCell id="MbSm_xnD5Ezz3WY8M0dj-35" value="" style="shape=curlyBracket;whiteSpace=wrap;html=1;rounded=1;flipH=1;labelPosition=right;verticalLabelPosition=middle;align=left;verticalAlign=middle;rotation=90;size=0.5;" vertex="1" parent="MbSm_xnD5Ezz3WY8M0dj-34">
          <mxGeometry x="50" y="-45" width="20" height="110" as="geometry" />
        </mxCell>
        <mxCell id="MbSm_xnD5Ezz3WY8M0dj-36" value="EmailService" style="text;html=1;align=center;verticalAlign=middle;resizable=0;points=[];autosize=1;strokeColor=none;fillColor=none;" vertex="1" parent="MbSm_xnD5Ezz3WY8M0dj-34">
          <mxGeometry x="17" y="19" width="90" height="30" as="geometry" />
        </mxCell>
        <mxCell id="fkMqOghh3aHqDIc3qY22-2" value="" style="endArrow=classic;html=1;rounded=0;strokeWidth=9;" edge="1" parent="1">
          <mxGeometry relative="1" as="geometry">
            <mxPoint x="315" y="500" as="sourcePoint" />
            <mxPoint x="1020" y="500" as="targetPoint" />
          </mxGeometry>
        </mxCell>
        <mxCell id="fkMqOghh3aHqDIc3qY22-3" value="&lt;p&gt;The DataManager facilitates the flow of data through the process, serving as the carrier.&amp;nbsp;&lt;/p&gt;&lt;p&gt;Each service applies transformations to the data managed by the DataManager.&lt;/p&gt;" style="edgeLabel;resizable=0;html=1;;align=center;verticalAlign=middle;labelBorderColor=default;" connectable="0" vertex="1" parent="fkMqOghh3aHqDIc3qY22-2">
          <mxGeometry relative="1" as="geometry" />
        </mxCell>
      </root>
    </mxGraphModel>
  </diagram>
  <diagram id="7n8u764q9fvXKhszVcNh" name="find flights">
    <mxGraphModel dx="1638" dy="727" grid="1" gridSize="10" guides="1" tooltips="1" connect="1" arrows="1" fold="1" page="1" pageScale="1" pageWidth="827" pageHeight="1169" math="0" shadow="0">
      <root>
        <mxCell id="0" />
        <mxCell id="1" parent="0" />
        <mxCell id="_DzASWh2Zjvuhnif-FDq-1" value="flight search started" style="points=[[0.145,0.145,0],[0.5,0,0],[0.855,0.145,0],[1,0.5,0],[0.855,0.855,0],[0.5,1,0],[0.145,0.855,0],[0,0.5,0]];shape=mxgraph.bpmn.event;html=1;verticalLabelPosition=bottom;labelBackgroundColor=#ffffff;verticalAlign=top;align=center;perimeter=ellipsePerimeter;outlineConnect=0;aspect=fixed;outline=standard;symbol=general;" vertex="1" parent="1">
          <mxGeometry x="100" y="190" width="50" height="50" as="geometry" />
        </mxCell>
        <mxCell id="_DzASWh2Zjvuhnif-FDq-7" value="" style="edgeStyle=orthogonalEdgeStyle;rounded=0;orthogonalLoop=1;jettySize=auto;html=1;" edge="1" parent="1" source="_DzASWh2Zjvuhnif-FDq-2" target="_DzASWh2Zjvuhnif-FDq-6">
          <mxGeometry relative="1" as="geometry" />
        </mxCell>
        <mxCell id="_DzASWh2Zjvuhnif-FDq-2" value="Choose start airport from the list of near airports" style="points=[[0.25,0,0],[0.5,0,0],[0.75,0,0],[1,0.25,0],[1,0.5,0],[1,0.75,0],[0.75,1,0],[0.5,1,0],[0.25,1,0],[0,0.75,0],[0,0.5,0],[0,0.25,0]];shape=mxgraph.bpmn.task;whiteSpace=wrap;rectStyle=rounded;size=10;html=1;container=1;expand=0;collapsible=0;taskMarker=abstract;" vertex="1" parent="1">
          <mxGeometry x="200" y="175" width="120" height="80" as="geometry" />
        </mxCell>
        <mxCell id="_DzASWh2Zjvuhnif-FDq-4" style="edgeStyle=orthogonalEdgeStyle;rounded=0;orthogonalLoop=1;jettySize=auto;html=1;entryX=0;entryY=0.5;entryDx=0;entryDy=0;entryPerimeter=0;" edge="1" parent="1" source="_DzASWh2Zjvuhnif-FDq-1" target="_DzASWh2Zjvuhnif-FDq-2">
          <mxGeometry relative="1" as="geometry" />
        </mxCell>
        <mxCell id="_DzASWh2Zjvuhnif-FDq-14" value="" style="edgeStyle=orthogonalEdgeStyle;rounded=0;orthogonalLoop=1;jettySize=auto;html=1;" edge="1" parent="1" source="_DzASWh2Zjvuhnif-FDq-6" target="_DzASWh2Zjvuhnif-FDq-13">
          <mxGeometry relative="1" as="geometry" />
        </mxCell>
        <mxCell id="_DzASWh2Zjvuhnif-FDq-6" value="List destinations of start airport" style="points=[[0.25,0,0],[0.5,0,0],[0.75,0,0],[1,0.25,0],[1,0.5,0],[1,0.75,0],[0.75,1,0],[0.5,1,0],[0.25,1,0],[0,0.75,0],[0,0.5,0],[0,0.25,0]];shape=mxgraph.bpmn.task;whiteSpace=wrap;rectStyle=rounded;size=10;html=1;container=1;expand=0;collapsible=0;taskMarker=abstract;" vertex="1" parent="1">
          <mxGeometry x="400" y="175" width="120" height="80" as="geometry" />
        </mxCell>
        <mxCell id="_DzASWh2Zjvuhnif-FDq-8" value="Start&amp;nbsp;&lt;span style=&quot;background-color: initial;&quot;&gt;airport&lt;/span&gt;" style="shape=mxgraph.bpmn.data;labelPosition=center;verticalLabelPosition=bottom;align=center;verticalAlign=top;size=15;html=1;bpmnTransferType=output;" vertex="1" parent="1">
          <mxGeometry x="240" y="70" width="40" height="60" as="geometry" />
        </mxCell>
        <mxCell id="_DzASWh2Zjvuhnif-FDq-9" style="edgeStyle=orthogonalEdgeStyle;rounded=0;orthogonalLoop=1;jettySize=auto;html=1;entryX=0.5;entryY=0;entryDx=0;entryDy=0;entryPerimeter=0;dashed=1;" edge="1" parent="1" source="_DzASWh2Zjvuhnif-FDq-8" target="_DzASWh2Zjvuhnif-FDq-2">
          <mxGeometry relative="1" as="geometry" />
        </mxCell>
        <mxCell id="_DzASWh2Zjvuhnif-FDq-11" value="Destination list" style="shape=mxgraph.bpmn.data;labelPosition=center;verticalLabelPosition=bottom;align=center;verticalAlign=top;size=15;html=1;bpmnTransferType=output;isCollection=1;" vertex="1" parent="1">
          <mxGeometry x="440" y="70" width="40" height="60" as="geometry" />
        </mxCell>
        <mxCell id="_DzASWh2Zjvuhnif-FDq-12" style="edgeStyle=orthogonalEdgeStyle;rounded=0;orthogonalLoop=1;jettySize=auto;html=1;entryX=0.5;entryY=0;entryDx=0;entryDy=0;entryPerimeter=0;dashed=1;" edge="1" parent="1" source="_DzASWh2Zjvuhnif-FDq-11" target="_DzASWh2Zjvuhnif-FDq-6">
          <mxGeometry relative="1" as="geometry" />
        </mxCell>
        <mxCell id="_DzASWh2Zjvuhnif-FDq-18" value="" style="edgeStyle=orthogonalEdgeStyle;rounded=0;orthogonalLoop=1;jettySize=auto;html=1;" edge="1" parent="1" source="_DzASWh2Zjvuhnif-FDq-13" target="_DzASWh2Zjvuhnif-FDq-17">
          <mxGeometry relative="1" as="geometry" />
        </mxCell>
        <mxCell id="_DzASWh2Zjvuhnif-FDq-13" value="Choose a destination" style="points=[[0.25,0,0],[0.5,0,0],[0.75,0,0],[1,0.25,0],[1,0.5,0],[1,0.75,0],[0.75,1,0],[0.5,1,0],[0.25,1,0],[0,0.75,0],[0,0.5,0],[0,0.25,0]];shape=mxgraph.bpmn.task;whiteSpace=wrap;rectStyle=rounded;size=10;html=1;container=1;expand=0;collapsible=0;taskMarker=abstract;" vertex="1" parent="1">
          <mxGeometry x="600" y="175" width="120" height="80" as="geometry" />
        </mxCell>
        <mxCell id="_DzASWh2Zjvuhnif-FDq-15" value="Destination" style="shape=mxgraph.bpmn.data;labelPosition=center;verticalLabelPosition=bottom;align=center;verticalAlign=top;size=15;html=1;bpmnTransferType=output;" vertex="1" parent="1">
          <mxGeometry x="630" y="70" width="40" height="60" as="geometry" />
        </mxCell>
        <mxCell id="_DzASWh2Zjvuhnif-FDq-16" style="edgeStyle=orthogonalEdgeStyle;rounded=0;orthogonalLoop=1;jettySize=auto;html=1;entryX=0.417;entryY=-0.062;entryDx=0;entryDy=0;entryPerimeter=0;dashed=1;" edge="1" parent="1" source="_DzASWh2Zjvuhnif-FDq-15" target="_DzASWh2Zjvuhnif-FDq-13">
          <mxGeometry relative="1" as="geometry" />
        </mxCell>
        <mxCell id="_DzASWh2Zjvuhnif-FDq-17" value="Check for outward flights" style="points=[[0.25,0,0],[0.5,0,0],[0.75,0,0],[1,0.25,0],[1,0.5,0],[1,0.75,0],[0.75,1,0],[0.5,1,0],[0.25,1,0],[0,0.75,0],[0,0.5,0],[0,0.25,0]];shape=mxgraph.bpmn.task;whiteSpace=wrap;rectStyle=rounded;size=10;html=1;container=1;expand=0;collapsible=0;taskMarker=abstract;" vertex="1" parent="1">
          <mxGeometry x="800" y="175" width="120" height="80" as="geometry" />
        </mxCell>
        <mxCell id="_DzASWh2Zjvuhnif-FDq-22" style="edgeStyle=orthogonalEdgeStyle;rounded=0;orthogonalLoop=1;jettySize=auto;html=1;entryX=0.5;entryY=1;entryDx=0;entryDy=0;entryPerimeter=0;" edge="1" parent="1" source="_DzASWh2Zjvuhnif-FDq-19" target="_DzASWh2Zjvuhnif-FDq-13">
          <mxGeometry relative="1" as="geometry">
            <mxPoint x="1005" y="460" as="targetPoint" />
            <Array as="points">
              <mxPoint x="1005" y="310" />
              <mxPoint x="660" y="310" />
            </Array>
          </mxGeometry>
        </mxCell>
        <mxCell id="_DzASWh2Zjvuhnif-FDq-23" value="No outward flights to destination" style="edgeLabel;html=1;align=center;verticalAlign=middle;resizable=0;points=[];" vertex="1" connectable="0" parent="_DzASWh2Zjvuhnif-FDq-22">
          <mxGeometry x="-0.0605" y="4" relative="1" as="geometry">
            <mxPoint y="-4" as="offset" />
          </mxGeometry>
        </mxCell>
        <mxCell id="_DzASWh2Zjvuhnif-FDq-19" value="" style="points=[[0.25,0.25,0],[0.5,0,0],[0.75,0.25,0],[1,0.5,0],[0.75,0.75,0],[0.5,1,0],[0.25,0.75,0],[0,0.5,0]];shape=mxgraph.bpmn.gateway2;html=1;verticalLabelPosition=bottom;labelBackgroundColor=#ffffff;verticalAlign=top;align=center;perimeter=rhombusPerimeter;outlineConnect=0;outline=none;symbol=none;gwType=exclusive;" vertex="1" parent="1">
          <mxGeometry x="980" y="190" width="50" height="50" as="geometry" />
        </mxCell>
        <mxCell id="_DzASWh2Zjvuhnif-FDq-20" style="edgeStyle=orthogonalEdgeStyle;rounded=0;orthogonalLoop=1;jettySize=auto;html=1;entryX=0;entryY=0.5;entryDx=0;entryDy=0;entryPerimeter=0;" edge="1" parent="1" source="_DzASWh2Zjvuhnif-FDq-17" target="_DzASWh2Zjvuhnif-FDq-19">
          <mxGeometry relative="1" as="geometry" />
        </mxCell>
        <mxCell id="_DzASWh2Zjvuhnif-FDq-25" style="edgeStyle=orthogonalEdgeStyle;rounded=0;orthogonalLoop=1;jettySize=auto;html=1;entryX=0;entryY=0.5;entryDx=0;entryDy=0;entryPerimeter=0;" edge="1" parent="1" source="_DzASWh2Zjvuhnif-FDq-19" target="_DzASWh2Zjvuhnif-FDq-31">
          <mxGeometry relative="1" as="geometry">
            <mxPoint x="1170" y="215" as="targetPoint" />
          </mxGeometry>
        </mxCell>
        <mxCell id="_DzASWh2Zjvuhnif-FDq-26" value="Outward flight found" style="edgeLabel;html=1;align=center;verticalAlign=middle;resizable=0;points=[];" vertex="1" connectable="0" parent="_DzASWh2Zjvuhnif-FDq-25">
          <mxGeometry x="-0.457" y="2" relative="1" as="geometry">
            <mxPoint x="26" y="1" as="offset" />
          </mxGeometry>
        </mxCell>
        <mxCell id="_DzASWh2Zjvuhnif-FDq-30" style="edgeStyle=orthogonalEdgeStyle;rounded=0;orthogonalLoop=1;jettySize=auto;html=1;entryX=0;entryY=0.5;entryDx=0;entryDy=0;entryPerimeter=0;" edge="1" parent="1" target="_DzASWh2Zjvuhnif-FDq-29">
          <mxGeometry relative="1" as="geometry">
            <mxPoint x="1290" y="215" as="sourcePoint" />
          </mxGeometry>
        </mxCell>
        <mxCell id="_DzASWh2Zjvuhnif-FDq-38" value="Near airports list&lt;div&gt;&lt;br&gt;&lt;/div&gt;" style="shape=mxgraph.bpmn.data;labelPosition=center;verticalLabelPosition=bottom;align=center;verticalAlign=top;size=15;html=1;bpmnTransferType=none;isCollection=1;" vertex="1" parent="1">
          <mxGeometry x="105" y="370" width="40" height="60" as="geometry" />
        </mxCell>
        <mxCell id="_DzASWh2Zjvuhnif-FDq-40" value="Current date" style="shape=mxgraph.bpmn.data;labelPosition=center;verticalLabelPosition=bottom;align=center;verticalAlign=top;size=15;html=1;" vertex="1" parent="1">
          <mxGeometry x="105" y="490" width="40" height="60" as="geometry" />
        </mxCell>
        <mxCell id="_DzASWh2Zjvuhnif-FDq-43" value="" style="group" vertex="1" connectable="0" parent="1">
          <mxGeometry x="1177.72" y="175" width="140" height="120" as="geometry" />
        </mxCell>
        <mxCell id="_DzASWh2Zjvuhnif-FDq-31" value="Choose a return airport from the near airports list" style="points=[[0.25,0,0],[0.5,0,0],[0.75,0,0],[1,0.25,0],[1,0.5,0],[1,0.75,0],[0.75,1,0],[0.5,1,0],[0.25,1,0],[0,0.75,0],[0,0.5,0],[0,0.25,0]];shape=mxgraph.bpmn.task;whiteSpace=wrap;rectStyle=rounded;size=10;html=1;container=1;expand=0;collapsible=0;taskMarker=abstract;" vertex="1" parent="_DzASWh2Zjvuhnif-FDq-43">
          <mxGeometry x="10" width="120" height="80" as="geometry" />
        </mxCell>
        <mxCell id="_DzASWh2Zjvuhnif-FDq-47" style="edgeStyle=orthogonalEdgeStyle;rounded=0;orthogonalLoop=1;jettySize=auto;html=1;entryX=0;entryY=0.5;entryDx=0;entryDy=0;entryPerimeter=0;" edge="1" parent="1" source="_DzASWh2Zjvuhnif-FDq-45" target="_DzASWh2Zjvuhnif-FDq-60">
          <mxGeometry relative="1" as="geometry">
            <mxPoint x="1957.7200000000003" y="215" as="targetPoint" />
          </mxGeometry>
        </mxCell>
        <mxCell id="_DzASWh2Zjvuhnif-FDq-49" value="No return flights to return airport found" style="edgeLabel;html=1;align=center;verticalAlign=middle;resizable=0;points=[];" vertex="1" connectable="0" parent="_DzASWh2Zjvuhnif-FDq-47">
          <mxGeometry x="-0.2109" y="-2" relative="1" as="geometry">
            <mxPoint x="25" y="-3" as="offset" />
          </mxGeometry>
        </mxCell>
        <mxCell id="_DzASWh2Zjvuhnif-FDq-45" value="" style="points=[[0.25,0.25,0],[0.5,0,0],[0.75,0.25,0],[1,0.5,0],[0.75,0.75,0],[0.5,1,0],[0.25,0.75,0],[0,0.5,0]];shape=mxgraph.bpmn.gateway2;html=1;verticalLabelPosition=bottom;labelBackgroundColor=#ffffff;verticalAlign=top;align=center;perimeter=rhombusPerimeter;outlineConnect=0;outline=none;symbol=none;gwType=exclusive;" vertex="1" parent="1">
          <mxGeometry x="1556.72" y="190" width="50" height="50" as="geometry" />
        </mxCell>
        <mxCell id="_DzASWh2Zjvuhnif-FDq-50" value="Return airport" style="shape=mxgraph.bpmn.data;labelPosition=center;verticalLabelPosition=bottom;align=center;verticalAlign=top;size=15;html=1;bpmnTransferType=output;" vertex="1" parent="1">
          <mxGeometry x="1228.72" y="70" width="40" height="60" as="geometry" />
        </mxCell>
        <mxCell id="_DzASWh2Zjvuhnif-FDq-52" value="Add outward and return flights&amp;nbsp;&lt;span style=&quot;background-color: initial;&quot;&gt;to flight report&lt;/span&gt;" style="points=[[0.25,0,0],[0.5,0,0],[0.75,0,0],[1,0.25,0],[1,0.5,0],[1,0.75,0],[0.75,1,0],[0.5,1,0],[0.25,1,0],[0,0.75,0],[0,0.5,0],[0,0.25,0]];shape=mxgraph.bpmn.task;whiteSpace=wrap;rectStyle=rounded;size=10;html=1;container=1;expand=0;collapsible=0;taskMarker=abstract;" vertex="1" parent="1">
          <mxGeometry x="1723.72" y="50" width="120" height="80" as="geometry" />
        </mxCell>
        <mxCell id="_DzASWh2Zjvuhnif-FDq-53" style="edgeStyle=orthogonalEdgeStyle;rounded=0;orthogonalLoop=1;jettySize=auto;html=1;entryX=0;entryY=0.5;entryDx=0;entryDy=0;entryPerimeter=0;" edge="1" parent="1" source="_DzASWh2Zjvuhnif-FDq-45" target="_DzASWh2Zjvuhnif-FDq-52">
          <mxGeometry relative="1" as="geometry">
            <Array as="points">
              <mxPoint x="1581.72" y="90" />
            </Array>
          </mxGeometry>
        </mxCell>
        <mxCell id="_DzASWh2Zjvuhnif-FDq-54" value="Return flights&amp;nbsp;&lt;div&gt;to return airport found&lt;/div&gt;" style="edgeLabel;html=1;align=center;verticalAlign=middle;resizable=0;points=[];" vertex="1" connectable="0" parent="_DzASWh2Zjvuhnif-FDq-53">
          <mxGeometry x="0.3714" y="-2" relative="1" as="geometry">
            <mxPoint as="offset" />
          </mxGeometry>
        </mxCell>
        <mxCell id="_DzASWh2Zjvuhnif-FDq-55" value="" style="group" vertex="1" connectable="0" parent="1">
          <mxGeometry x="1367.72" y="175" width="120" height="120" as="geometry" />
        </mxCell>
        <mxCell id="_DzASWh2Zjvuhnif-FDq-56" value="Check for return flights to return airport" style="points=[[0.25,0,0],[0.5,0,0],[0.75,0,0],[1,0.25,0],[1,0.5,0],[1,0.75,0],[0.75,1,0],[0.5,1,0],[0.25,1,0],[0,0.75,0],[0,0.5,0],[0,0.25,0]];shape=mxgraph.bpmn.task;whiteSpace=wrap;rectStyle=rounded;size=10;html=1;container=1;expand=0;collapsible=0;taskMarker=abstract;movable=1;resizable=1;rotatable=1;deletable=1;editable=1;locked=0;connectable=1;" vertex="1" parent="_DzASWh2Zjvuhnif-FDq-55">
          <mxGeometry width="120" height="80" as="geometry" />
        </mxCell>
        <mxCell id="_DzASWh2Zjvuhnif-FDq-57" value="The next day&amp;nbsp;&lt;div&gt;and the day after&lt;/div&gt;" style="text;html=1;align=center;verticalAlign=middle;resizable=1;points=[];autosize=1;strokeColor=none;fillColor=none;movable=1;rotatable=1;deletable=1;editable=1;locked=0;connectable=1;" vertex="1" parent="_DzASWh2Zjvuhnif-FDq-55">
          <mxGeometry x="5" y="80" width="110" height="40" as="geometry" />
        </mxCell>
        <mxCell id="_DzASWh2Zjvuhnif-FDq-58" style="edgeStyle=orthogonalEdgeStyle;rounded=0;orthogonalLoop=1;jettySize=auto;html=1;entryX=0;entryY=0.5;entryDx=0;entryDy=0;entryPerimeter=0;" edge="1" parent="1" source="_DzASWh2Zjvuhnif-FDq-31" target="_DzASWh2Zjvuhnif-FDq-56">
          <mxGeometry relative="1" as="geometry" />
        </mxCell>
        <mxCell id="_DzASWh2Zjvuhnif-FDq-59" style="edgeStyle=orthogonalEdgeStyle;rounded=0;orthogonalLoop=1;jettySize=auto;html=1;entryX=0;entryY=0.5;entryDx=0;entryDy=0;entryPerimeter=0;" edge="1" parent="1" source="_DzASWh2Zjvuhnif-FDq-56" target="_DzASWh2Zjvuhnif-FDq-45">
          <mxGeometry relative="1" as="geometry" />
        </mxCell>
        <mxCell id="_DzASWh2Zjvuhnif-FDq-60" value="" style="points=[[0.25,0.25,0],[0.5,0,0],[0.75,0.25,0],[1,0.5,0],[0.75,0.75,0],[0.5,1,0],[0.25,0.75,0],[0,0.5,0]];shape=mxgraph.bpmn.gateway2;html=1;verticalLabelPosition=bottom;labelBackgroundColor=#ffffff;verticalAlign=top;align=center;perimeter=rhombusPerimeter;outlineConnect=0;outline=none;symbol=none;gwType=exclusive;" vertex="1" parent="1">
          <mxGeometry x="1907.7200000000003" y="190" width="50" height="50" as="geometry" />
        </mxCell>
        <mxCell id="_DzASWh2Zjvuhnif-FDq-64" style="edgeStyle=orthogonalEdgeStyle;rounded=0;orthogonalLoop=1;jettySize=auto;html=1;entryX=0.5;entryY=0;entryDx=0;entryDy=0;entryPerimeter=0;" edge="1" parent="1" source="_DzASWh2Zjvuhnif-FDq-52" target="_DzASWh2Zjvuhnif-FDq-60">
          <mxGeometry relative="1" as="geometry" />
        </mxCell>
        <mxCell id="_DzASWh2Zjvuhnif-FDq-65" style="edgeStyle=orthogonalEdgeStyle;rounded=0;orthogonalLoop=1;jettySize=auto;html=1;entryX=0.427;entryY=1.05;entryDx=0;entryDy=0;entryPerimeter=0;" edge="1" parent="1" source="_DzASWh2Zjvuhnif-FDq-60" target="_DzASWh2Zjvuhnif-FDq-31">
          <mxGeometry relative="1" as="geometry">
            <mxPoint x="1250" y="280" as="targetPoint" />
            <Array as="points">
              <mxPoint x="1933" y="330" />
              <mxPoint x="1239" y="330" />
            </Array>
          </mxGeometry>
        </mxCell>
        <mxCell id="_DzASWh2Zjvuhnif-FDq-66" value="Near airports list is not completed" style="edgeLabel;html=1;align=center;verticalAlign=middle;resizable=0;points=[];" vertex="1" connectable="0" parent="_DzASWh2Zjvuhnif-FDq-65">
          <mxGeometry x="-0.0155" y="4" relative="1" as="geometry">
            <mxPoint y="-4" as="offset" />
          </mxGeometry>
        </mxCell>
        <mxCell id="_DzASWh2Zjvuhnif-FDq-68" style="edgeStyle=orthogonalEdgeStyle;rounded=0;orthogonalLoop=1;jettySize=auto;html=1;entryX=0;entryY=0.5;entryDx=0;entryDy=0;entryPerimeter=0;" edge="1" parent="1" source="_DzASWh2Zjvuhnif-FDq-60" target="_DzASWh2Zjvuhnif-FDq-71">
          <mxGeometry relative="1" as="geometry">
            <mxPoint x="2347.7200000000003" y="215" as="targetPoint" />
          </mxGeometry>
        </mxCell>
        <mxCell id="_DzASWh2Zjvuhnif-FDq-69" value="Text" style="edgeLabel;html=1;align=center;verticalAlign=middle;resizable=0;points=[];" vertex="1" connectable="0" parent="_DzASWh2Zjvuhnif-FDq-68">
          <mxGeometry x="-0.0807" y="-2" relative="1" as="geometry">
            <mxPoint as="offset" />
          </mxGeometry>
        </mxCell>
        <mxCell id="_DzASWh2Zjvuhnif-FDq-70" value="Near airports list is not completed" style="edgeLabel;html=1;align=center;verticalAlign=middle;resizable=0;points=[];" vertex="1" connectable="0" parent="_DzASWh2Zjvuhnif-FDq-68">
          <mxGeometry x="-0.0451" y="-4" relative="1" as="geometry">
            <mxPoint y="-5" as="offset" />
          </mxGeometry>
        </mxCell>
        <mxCell id="_DzASWh2Zjvuhnif-FDq-75" style="edgeStyle=orthogonalEdgeStyle;rounded=0;orthogonalLoop=1;jettySize=auto;html=1;entryX=0;entryY=0.5;entryDx=0;entryDy=0;entryPerimeter=0;" edge="1" parent="1" source="_DzASWh2Zjvuhnif-FDq-71" target="_DzASWh2Zjvuhnif-FDq-77">
          <mxGeometry relative="1" as="geometry">
            <mxPoint x="2466.7200000000003" y="215" as="targetPoint" />
          </mxGeometry>
        </mxCell>
        <mxCell id="_DzASWh2Zjvuhnif-FDq-76" value="Destination list is completed" style="edgeLabel;html=1;align=center;verticalAlign=middle;resizable=0;points=[];" vertex="1" connectable="0" parent="_DzASWh2Zjvuhnif-FDq-75">
          <mxGeometry x="-0.1695" relative="1" as="geometry">
            <mxPoint x="10" as="offset" />
          </mxGeometry>
        </mxCell>
        <mxCell id="_DzASWh2Zjvuhnif-FDq-71" value="" style="points=[[0.25,0.25,0],[0.5,0,0],[0.75,0.25,0],[1,0.5,0],[0.75,0.75,0],[0.5,1,0],[0.25,0.75,0],[0,0.5,0]];shape=mxgraph.bpmn.gateway2;html=1;verticalLabelPosition=bottom;labelBackgroundColor=#ffffff;verticalAlign=top;align=center;perimeter=rhombusPerimeter;outlineConnect=0;outline=none;symbol=none;gwType=exclusive;" vertex="1" parent="1">
          <mxGeometry x="2236.7200000000003" y="190" width="50" height="50" as="geometry" />
        </mxCell>
        <mxCell id="_DzASWh2Zjvuhnif-FDq-73" style="edgeStyle=orthogonalEdgeStyle;rounded=0;orthogonalLoop=1;jettySize=auto;html=1;entryX=0.5;entryY=1;entryDx=0;entryDy=0;entryPerimeter=0;" edge="1" parent="1" source="_DzASWh2Zjvuhnif-FDq-71" target="_DzASWh2Zjvuhnif-FDq-13">
          <mxGeometry relative="1" as="geometry">
            <mxPoint x="450" y="290" as="targetPoint" />
            <Array as="points">
              <mxPoint x="2263" y="370" />
              <mxPoint x="660" y="370" />
            </Array>
          </mxGeometry>
        </mxCell>
        <mxCell id="_DzASWh2Zjvuhnif-FDq-74" value="Destination list is not completed" style="edgeLabel;html=1;align=center;verticalAlign=middle;resizable=0;points=[];" vertex="1" connectable="0" parent="_DzASWh2Zjvuhnif-FDq-73">
          <mxGeometry x="0.0963" y="1" relative="1" as="geometry">
            <mxPoint x="199" as="offset" />
          </mxGeometry>
        </mxCell>
        <mxCell id="_DzASWh2Zjvuhnif-FDq-77" value="" style="points=[[0.25,0.25,0],[0.5,0,0],[0.75,0.25,0],[1,0.5,0],[0.75,0.75,0],[0.5,1,0],[0.25,0.75,0],[0,0.5,0]];shape=mxgraph.bpmn.gateway2;html=1;verticalLabelPosition=bottom;labelBackgroundColor=#ffffff;verticalAlign=top;align=center;perimeter=rhombusPerimeter;outlineConnect=0;outline=none;symbol=none;gwType=exclusive;" vertex="1" parent="1">
          <mxGeometry x="2476.7200000000003" y="190" width="50" height="50" as="geometry" />
        </mxCell>
        <mxCell id="_DzASWh2Zjvuhnif-FDq-78" style="edgeStyle=orthogonalEdgeStyle;rounded=0;orthogonalLoop=1;jettySize=auto;html=1;entryX=0.5;entryY=1;entryDx=0;entryDy=0;entryPerimeter=0;" edge="1" parent="1" source="_DzASWh2Zjvuhnif-FDq-77" target="_DzASWh2Zjvuhnif-FDq-2">
          <mxGeometry relative="1" as="geometry">
            <mxPoint x="260" y="310" as="targetPoint" />
            <Array as="points">
              <mxPoint x="2503" y="410" />
              <mxPoint x="260" y="410" />
            </Array>
          </mxGeometry>
        </mxCell>
        <mxCell id="_DzASWh2Zjvuhnif-FDq-79" value="List of near airports as start airport not completed" style="edgeLabel;html=1;align=center;verticalAlign=middle;resizable=0;points=[];" vertex="1" connectable="0" parent="_DzASWh2Zjvuhnif-FDq-78">
          <mxGeometry x="0.0258" y="1" relative="1" as="geometry">
            <mxPoint x="219" as="offset" />
          </mxGeometry>
        </mxCell>
        <mxCell id="_DzASWh2Zjvuhnif-FDq-80" value="" style="points=[[0.145,0.145,0],[0.5,0,0],[0.855,0.145,0],[1,0.5,0],[0.855,0.855,0],[0.5,1,0],[0.145,0.855,0],[0,0.5,0]];shape=mxgraph.bpmn.event;html=1;verticalLabelPosition=bottom;labelBackgroundColor=#ffffff;verticalAlign=top;align=center;perimeter=ellipsePerimeter;outlineConnect=0;aspect=fixed;outline=end;symbol=terminate;" vertex="1" parent="1">
          <mxGeometry x="2736.7200000000003" y="190" width="50" height="50" as="geometry" />
        </mxCell>
        <mxCell id="_DzASWh2Zjvuhnif-FDq-81" style="edgeStyle=orthogonalEdgeStyle;rounded=0;orthogonalLoop=1;jettySize=auto;html=1;entryX=0;entryY=0.5;entryDx=0;entryDy=0;entryPerimeter=0;" edge="1" parent="1" source="_DzASWh2Zjvuhnif-FDq-77" target="_DzASWh2Zjvuhnif-FDq-80">
          <mxGeometry relative="1" as="geometry" />
        </mxCell>
        <mxCell id="_DzASWh2Zjvuhnif-FDq-82" value="List of near airports as&amp;nbsp;&lt;div&gt;start airport not completed&lt;/div&gt;" style="edgeLabel;html=1;align=center;verticalAlign=middle;resizable=0;points=[];" vertex="1" connectable="0" parent="_DzASWh2Zjvuhnif-FDq-81">
          <mxGeometry x="-0.1649" y="2" relative="1" as="geometry">
            <mxPoint x="6" as="offset" />
          </mxGeometry>
        </mxCell>
        <mxCell id="y47UK13j3A25SXZBIJ4j-1" style="rounded=0;orthogonalLoop=1;jettySize=auto;html=1;entryX=0.5;entryY=0;entryDx=0;entryDy=0;entryPerimeter=0;dashed=1;" edge="1" parent="1" source="_DzASWh2Zjvuhnif-FDq-50" target="_DzASWh2Zjvuhnif-FDq-31">
          <mxGeometry relative="1" as="geometry" />
        </mxCell>
      </root>
    </mxGraphModel>
  </diagram>
</mxfile>
